<svg width="40" height="40" viewBox="0 0 40 40" fill="none" xmlns="http://www.w3.org/2000/svg">
<path d="M23.3333 13.3333H25C25.442 13.3333 25.8659 13.1577 26.1785 12.8452C26.4911 12.5326 26.6666 12.1087 26.6666 11.6666C26.6666 11.2246 26.4911 10.8007 26.1785 10.4881C25.8659 10.1756 25.442 9.99998 25 9.99998H23.3333C22.8913 9.99998 22.4674 10.1756 22.1548 10.4881C21.8422 10.8007 21.6666 11.2246 21.6666 11.6666C21.6666 12.1087 21.8422 12.5326 22.1548 12.8452C22.4674 13.1577 22.8913 13.3333 23.3333 13.3333ZM23.3333 20H25C25.442 20 25.8659 19.8244 26.1785 19.5118C26.4911 19.1993 26.6666 18.7753 26.6666 18.3333C26.6666 17.8913 26.4911 17.4674 26.1785 17.1548C25.8659 16.8422 25.442 16.6666 25 16.6666H23.3333C22.8913 16.6666 22.4674 16.8422 22.1548 17.1548C21.8422 17.4674 21.6666 17.8913 21.6666 18.3333C21.6666 18.7753 21.8422 19.1993 22.1548 19.5118C22.4674 19.8244 22.8913 20 23.3333 20ZM15 13.3333H16.6666C17.1087 13.3333 17.5326 13.1577 17.8452 12.8452C18.1577 12.5326 18.3333 12.1087 18.3333 11.6666C18.3333 11.2246 18.1577 10.8007 17.8452 10.4881C17.5326 10.1756 17.1087 9.99998 16.6666 9.99998H15C14.558 9.99998 14.134 10.1756 13.8215 10.4881C13.5089 10.8007 13.3333 11.2246 13.3333 11.6666C13.3333 12.1087 13.5089 12.5326 13.8215 12.8452C14.134 13.1577 14.558 13.3333 15 13.3333ZM15 20H16.6666C17.1087 20 17.5326 19.8244 17.8452 19.5118C18.1577 19.1993 18.3333 18.7753 18.3333 18.3333C18.3333 17.8913 18.1577 17.4674 17.8452 17.1548C17.5326 16.8422 17.1087 16.6666 16.6666 16.6666H15C14.558 16.6666 14.134 16.8422 13.8215 17.1548C13.5089 17.4674 13.3333 17.8913 13.3333 18.3333C13.3333 18.7753 13.5089 19.1993 13.8215 19.5118C14.134 19.8244 14.558 20 15 20ZM35 33.3333H33.3333V4.99998C33.3333 4.55795 33.1577 4.13403 32.8452 3.82147C32.5326 3.50891 32.1087 3.33331 31.6666 3.33331H8.33331C7.89129 3.33331 7.46736 3.50891 7.1548 3.82147C6.84224 4.13403 6.66665 4.55795 6.66665 4.99998V33.3333H4.99998C4.55795 33.3333 4.13403 33.5089 3.82147 33.8215C3.50891 34.134 3.33331 34.558 3.33331 35C3.33331 35.442 3.50891 35.8659 3.82147 36.1785C4.13403 36.4911 4.55795 36.6666 4.99998 36.6666H35C35.442 36.6666 35.8659 36.4911 36.1785 36.1785C36.4911 35.8659 36.6666 35.442 36.6666 35C36.6666 34.558 36.4911 34.134 36.1785 33.8215C35.8659 33.5089 35.442 33.3333 35 33.3333ZM21.6666 33.3333H18.3333V26.6666H21.6666V33.3333ZM30 33.3333H25V25C25 24.558 24.8244 24.134 24.5118 23.8215C24.1993 23.5089 23.7753 23.3333 23.3333 23.3333H16.6666C16.2246 23.3333 15.8007 23.5089 15.4881 23.8215C15.1756 24.134 15 24.558 15 25V33.3333H9.99998V6.66665H30V33.3333Z" fill="#1A1A1A"/>
</svg>
